<svg width="33" height="33" viewBox="0 0 33 33" fill="none" xmlns="http://www.w3.org/2000/svg">
<g filter="url(#filter0_d)">
<path d="M16.5 0C9.59644 0 4 5.59644 4 12.5C4 19.4036 9.59644 25 16.5 25C23.4036 25 29 19.4036 29 12.5C28.9927 5.59953 23.4005 0.00737655 16.5 0ZM21.7642 12.8983C21.6777 13.0719 21.537 13.2126 21.3634 13.2991V13.3036L14.2205 16.875C13.7794 17.0954 13.2432 16.9166 13.0227 16.4754C12.96 16.35 12.9278 16.2116 12.9285 16.0715V8.9286C12.9283 8.43547 13.3279 8.03557 13.821 8.03531C13.9597 8.03525 14.0965 8.06748 14.2205 8.12948L21.3634 11.7009C21.8047 11.9209 21.9842 12.4569 21.7642 12.8983Z" fill="#5671F6"/>
<path d="M21.7642 12.8983L22.2117 13.1213C22.1265 13.2923 22.0076 13.4428 21.8634 13.5645V13.6126L21.587 13.7508L14.4442 17.3222L14.444 17.3223C13.7559 17.6661 12.9194 17.3871 12.5755 16.699C12.4779 16.5038 12.4276 16.2884 12.4285 16.0702M21.7642 12.8983L12.4286 16.0687C12.4286 16.0692 12.4286 16.0697 12.4285 16.0702M21.7642 12.8983L22.2117 13.1213C22.5549 12.4328 22.2749 11.5965 21.5864 11.2534L14.4442 7.68226L14.4441 7.68222C14.2505 7.58548 14.0371 7.53523 13.8208 7.53531H13.8207C13.0516 7.53572 12.4283 8.15944 12.4285 8.9286C12.4285 8.92867 12.4285 8.92874 12.4285 8.92881M21.7642 12.8983L12.4285 8.92881M12.4285 16.0702V8.92881M12.4285 16.0702V8.92881M4.5 12.5C4.5 5.87267 9.87245 0.500138 16.4997 0.5C23.1244 0.507232 28.493 5.87588 28.5 12.5005C28.4997 19.1277 23.1272 24.5 16.5 24.5C9.87259 24.5 4.5 19.1274 4.5 12.5Z" stroke="black"/>
</g>
<defs>
<filter id="filter0_d" x="0" y="0" width="33" height="33" filterUnits="userSpaceOnUse" color-interpolation-filters="sRGB">
<feFlood flood-opacity="0" result="BackgroundImageFix"/>
<feColorMatrix in="SourceAlpha" type="matrix" values="0 0 0 0 0 0 0 0 0 0 0 0 0 0 0 0 0 0 127 0"/>
<feOffset dy="4"/>
<feGaussianBlur stdDeviation="2"/>
<feColorMatrix type="matrix" values="0 0 0 0 0 0 0 0 0 0 0 0 0 0 0 0 0 0 0.25 0"/>
<feBlend mode="normal" in2="BackgroundImageFix" result="effect1_dropShadow"/>
<feBlend mode="normal" in="SourceGraphic" in2="effect1_dropShadow" result="shape"/>
</filter>
</defs>
</svg>
